<svg xmlns="http://www.w3.org/2000/svg" xmlns:xlink="http://www.w3.org/1999/xlink" width="334.716" height="368.468" viewBox="0 0 334.716 368.468">
  <defs>
    <linearGradient id="linear-gradient" x1="0.5" y1="1" x2="0.5" gradientUnits="objectBoundingBox">
      <stop offset="0" stop-color="gray" stop-opacity="0.251"/>
      <stop offset="0.54" stop-color="gray" stop-opacity="0.122"/>
      <stop offset="1" stop-color="gray" stop-opacity="0.102"/>
    </linearGradient>
  </defs>
  <g id="Group_96" data-name="Group 96" transform="translate(93.079 -1845.162)">
    <path id="Path_8" data-name="Path 8" d="M237.243,536.471l-161.988-.79-16.1-37.752,56.914-4.132-9.92-41.391,112.57-14.591L110.93,400.342l9.522-2.262,173.332,28.277-9.546,64.6-13.644,35.5Z" transform="translate(-147.776 1635.474)" fill="#38d39f"/>
    <path id="Path_45" data-name="Path 45" d="M608.147,670.36s-10.729,13.1-2.21,32.892L520.277,740.4l-8.221,1.723-3.786-16.564,2.532-20.9V693.233Z" transform="translate(-426.262 1471.505)" fill="#d5d6db"/>
    <path id="Path_46" data-name="Path 46" d="M59.16,585,177.721,563.39l157.1,25.026-97.577,35.13Z" transform="translate(-147.776 1548.399)" fill="#38d39f"/>
    <path id="Path_47" data-name="Path 47" d="M59.16,585,177.721,563.39l157.1,25.026-97.577,35.13Z" transform="translate(-147.776 1548.399)" fill="#38d39f"/>
    <path id="Path_48" data-name="Path 48" d="M142.772,652.47s-11.088,21.008,1.69,40.412l175.816,38.1s-10.913-16.734.563-39.962Z" transform="translate(-231.388 1480.928)" fill="#38d39f"/>
    <path id="Path_49" data-name="Path 49" d="M142.772,652.47s-11.088,21.008,1.69,40.412l175.816,38.1s-10.913-16.734.563-39.962Z" transform="translate(-231.388 1480.928)" opacity="0.1"/>
    <path id="Path_54" data-name="Path 54" d="M152.23,594.451l83.294-17.511,50.743,9.7-68.254,22.007Z" transform="translate(-196.8 1541.262)" fill="#fff" opacity="0.3"/>
    <path id="Path_55" data-name="Path 55" d="M621.591,659.69s4.307,1.737,1.779,4.42S524,694.82,524,694.82Z" transform="translate(-434.547 1477.125)" fill="#38d39f"/>
    <path id="Path_56" data-name="Path 56" d="M707.442,574.18s-10.724,13.09-2.205,32.892l-85.66,37.151-8.221,1.732-3.786-16.564,2.57-20.9V597.053Z" transform="translate(-478.567 1522.167)" fill="#d5d6db"/>
    <path id="Path_57" data-name="Path 57" d="M158.46,488.819,277.016,467.21l157.1,25.026-97.577,35.13Z" transform="translate(-200.081 1599.061)" fill="#3a3768"/>
    <path id="Path_58" data-name="Path 58" d="M242.029,556.29S230.935,577.3,243.713,596.7L419.53,634.8s-10.909-16.749.582-39.967Z" transform="translate(-283.669 1531.59)" fill="#3a3768"/>
    <path id="Path_59" data-name="Path 59" d="M242.029,556.29S230.935,577.3,243.713,596.7L419.53,634.8s-10.909-16.749.582-39.967l-55.6-12.035Z" transform="translate(-283.669 1531.59)" opacity="0.1"/>
    <path id="Path_61" data-name="Path 61" d="M426.416,675.564l98.159-41.884s5.485,1.183,1.936,5.206-98.2,40.7-98.2,40.7L250.6,637.466Z" transform="translate(-290.537 1490.826)" fill="#3a3768"/>
    <path id="Path_62" data-name="Path 62" d="M426.416,675.564l98.159-41.884s5.485,1.183,1.936,5.206-98.2,40.7-98.2,40.7L250.6,637.466Z" transform="translate(-290.537 1490.826)" opacity="0.1"/>
    <path id="Path_63" data-name="Path 63" d="M600.418,646.68s-9.465,11.358,0,28.4" transform="translate(-472.584 1483.978)" opacity="0.1"/>
    <rect id="Rectangle_113" data-name="Rectangle 113" width="44.756" height="0.473" transform="translate(131.208 2144.634) rotate(-18.45)" opacity="0.1"/>
    <rect id="Rectangle_114" data-name="Rectangle 114" width="54.534" height="0.473" transform="translate(131.198 2148.443) rotate(-20.82)" opacity="0.1"/>
    <rect id="Rectangle_115" data-name="Rectangle 115" width="63.209" height="0.473" transform="translate(131.475 2152.927) rotate(-22.26)" opacity="0.1"/>
    <rect id="Rectangle_116" data-name="Rectangle 116" width="72.759" height="0.473" transform="translate(132.163 2156.889) rotate(-24.31)" opacity="0.1"/>
    <rect id="Rectangle_117" data-name="Rectangle 117" width="79.579" height="0.473" transform="matrix(0.916, -0.401, 0.401, 0.916, 132.682, 2158.81)" opacity="0.1"/>
    <rect id="Rectangle_118" data-name="Rectangle 118" width="95.229" height="0.473" transform="translate(133.787 2162.046) rotate(-23.36)" opacity="0.1"/>
    <path id="Path_64" data-name="Path 64" d="M251.53,498.271l83.294-17.511,50.743,9.7-68.254,22.007Z" transform="translate(-249.105 1591.924)" fill="#fff" opacity="0.45"/>
    <path id="Path_65" data-name="Path 65" d="M720.907,563.51s4.3,1.737,1.779,4.416-99.356,30.71-99.356,30.71Z" transform="translate(-486.868 1527.787)" fill="#3a3768"/>
    <path id="Path_66" data-name="Path 66" d="M716.858,464.15s-10.729,23.507-2.21,43.3l-85.66,26.739-8.2,1.737L617,519.365l2.532-20.9V487.023Z" transform="translate(-483.534 1580.124)" fill="#d5d6db"/>
    <path id="Path_67" data-name="Path 67" d="M167.89,378.794,286.451,357.18l157.1,25.026-97.582,35.13Z" transform="translate(-205.049 1657.018)" fill="#38d39f"/>
    <path id="Path_68" data-name="Path 68" d="M251.488,446.26s-11.107,21.008,1.671,40.412l175.816,38.1s-10.913-16.749.577-39.962Z" transform="translate(-288.646 1589.547)" fill="#38d39f"/>
    <path id="Path_69" data-name="Path 69" d="M251.488,446.26s-11.107,21.008,1.671,40.412l175.816,38.1s-10.913-16.749.577-39.962Z" transform="translate(-288.646 1589.547)" opacity="0.1"/>
    <path id="Path_71" data-name="Path 71" d="M435.856,569.747l98.154-31.472s5.49,1.183,1.94,5.206-98.2,30.289-98.2,30.289L260.04,531.65Z" transform="translate(-295.509 1544.569)" fill="#38d39f"/>
    <path id="Path_72" data-name="Path 72" d="M435.856,569.747l98.154-31.472s5.49,1.183,1.94,5.206-98.2,30.289-98.2,30.289L260.04,531.65Z" transform="translate(-295.509 1544.569)" opacity="0.1"/>
    <path id="Path_73" data-name="Path 73" d="M609.858,536.65s-9.465,11.358,0,28.4" transform="translate(-477.556 1541.935)" opacity="0.1"/>
    <rect id="Rectangle_119" data-name="Rectangle 119" width="44.756" height="0.473" transform="translate(135.676 2092.561) rotate(-18.45)" opacity="0.1"/>
    <rect id="Rectangle_120" data-name="Rectangle 120" width="54.534" height="0.473" transform="translate(135.663 2096.371) rotate(-20.82)" opacity="0.1"/>
    <rect id="Rectangle_121" data-name="Rectangle 121" width="63.209" height="0.473" transform="translate(135.937 2100.858) rotate(-22.26)" opacity="0.1"/>
    <rect id="Rectangle_122" data-name="Rectangle 122" width="72.759" height="0.473" transform="translate(136.631 2104.815) rotate(-24.31)" opacity="0.1"/>
    <rect id="Rectangle_123" data-name="Rectangle 123" width="79.579" height="0.473" transform="matrix(0.916, -0.401, 0.401, 0.916, 137.153, 2106.741)" opacity="0.1"/>
    <rect id="Rectangle_124" data-name="Rectangle 124" width="95.229" height="0.473" transform="translate(138.255 2109.981) rotate(-23.36)" opacity="0.1"/>
    <path id="Path_74" data-name="Path 74" d="M260.96,388.241l83.294-17.511,50.743,9.7-68.254,22.007Z" transform="translate(-254.072 1649.881)" fill="#fff" opacity="0.3"/>
    <path id="Path_75" data-name="Path 75" d="M730.337,453.48s4.307,1.737,1.779,4.42-99.356,30.71-99.356,30.71Z" transform="translate(-491.835 1585.744)" fill="#38d39f"/>
    <path id="Path_82" data-name="Path 82" d="M624.885,221.98c-3.1-8.41-20.133-9.2-27.525-7.056-5.253,1.529-16.328,3.251-22.243,4.117l-.383-.364c.767-.227.786-.786.691-1.614a25.245,25.245,0,0,1,.047-3.275c3.625,1.126,6.853-1.538,6.853-1.538h0c4.259-1.893,3.114-10,3.928-12.21.611-1.656,1.268-11.415,1.562-16.28h.062l.033-1.633c.043-.705.062-1.117.062-1.117s.416-11.9,1.23-14.307c.757-2.215,1.372-13.374,1.467-15.144v-.232l-.062-1.032c.043-.752.062-1.59.057-2.47,0-4.046-.421-9.143-.473-9.967v-.431c.033-1.727-.185-10.379-7.544-13.649-2.712-1.212-5.973-2.655-9.129-4.061-.814-7.028-2.674-14.018-2.513-21.1,0-1.065.095-2.13.2-3.19,0,.308-.033.62-.038.947V98.44c.279-8.855,3.625-17.757,3.313-26.422-.028.847-.09,1.7-.17,2.551a27.51,27.51,0,0,0-.909-8.7,5.15,5.15,0,0,0-1.486-2.7,6.119,6.119,0,0,0-2.593-1.027,52.159,52.159,0,0,0-6.81-1.268,10.514,10.514,0,0,0-1.533-2.977c-4.8-6.588-11.907-12.778-20.312-14.2-4.217-.71-9.068-.118-11.936,2.9a8.941,8.941,0,0,0-.842.852c-1.543,1.841-2.205,4.259-3.786,6.1-.1.123-.222.237-.336.355-3.1,2.769-7.918,3.346-11.358,5.831a13.636,13.636,0,0,0-1.7,1.481,28.811,28.811,0,0,0-3.71,4.51c-1.548,2.177-3.138,4.444-3.63,7.042-.989,5.206,2.556,10.142,3.213,15.381,1.467,11.723-11.5,22.125-9.049,33.691a15.428,15.428,0,0,0,4.174,7.492c-5.059,4.581-9.366,9.025-9.366,9.025v.265h-.8l.08.947h-.08l.44,5.135-.44,7.478v.705h.028c.147,2.74.729,12.593,1.42,14.671.814,2.409,1.226,14.307,1.226,14.307s.9,16.815,1.723,19.039-.345,10.3,3.928,12.21h0a8.992,8.992,0,0,0,4.292,1.779c-.218,1.77-.08,3.053.625,3.455a2.063,2.063,0,0,0,.994.284,10.554,10.554,0,0,0-.771,1.349,20.045,20.045,0,0,1-4.96-1.169c-4.591-1.893-19.825-6.152-24.25-3.157s-15.073,5.712-10.156,17.771,7.208,12.362,7.208,12.362a17.509,17.509,0,0,1,3.933,3.952c1.477,2.22,15.234,7.3,18.675,7.3a33.687,33.687,0,0,1,4.378.218s-3.734,3.275-3.237,5.177-1.136,17.132-1.136,17.132,3.786,3.814,5.4-1.188l.057.076c.3.412,1.94,2.272,5.021-.076a28.151,28.151,0,0,1,4-2.537l14.917-2.111a42.229,42.229,0,0,1,4.671-.033c2.366.194,4.69-1.207,6.152-2.291,3.09,1.174,6.564,2.456,8.216,2.925,3.351.947,18.751,5.078,22.352,3.786a5,5,0,0,0,1.94-1.382l3.436.109-1.609.322s3.133.052,7.392.109l-.18.1,5.343-.047c7.818.071,16.6.095,17.757-.166,1.808-.4,11.2-.118,13.971,0h.771s10.322-2.059,6.062-12.532c-3.275-8.045-13.341-10.383-17.809-11.027,1.259-.251,2.343-.445,3.062-.558,3.119-.473,9.177-3.313,9.669-4.283s5.57-3.786,6.881-5.39S627.994,230.39,624.885,221.98ZM539.39,245.516l-.506.166-.341.114-.653.644c-.521-.35-1.079-.719-1.661-1.1C537.256,245.4,538.311,245.464,539.39,245.516ZM584.5,258.852Z" transform="translate(-403.137 1801.735)" fill="url(#linear-gradient)"/>
    <path id="Path_83" data-name="Path 83" d="M686.65,300.037s7.241,18.93,11.358,17.037,3-9.938,3.786-12.144S703.451,286,703.451,286s.4-11.832,1.183-14.226c.729-2.2,1.32-13.3,1.42-15.045V256.5l-.781-13.725-4.42-1.1L690.6,245.456l-1.42,8.107-.554,3.166-.237,1.349Z" transform="translate(-520.221 1697.313)" fill="#be6f72"/>
    <path id="Path_84" data-name="Path 84" d="M691.69,358.3s6.91,5.655,8.992,6.152,3.36,4.908,3.36,4.908" transform="translate(-522.876 1635.879)" opacity="0.1"/>
    <path id="Path_85" data-name="Path 85" d="M545.4,301.787s-7.241,18.93-11.358,17.037-3-9.938-3.786-12.144-1.656-18.93-1.656-18.93-.4-11.832-1.183-14.226c-.729-2.2-1.32-13.3-1.42-15.045v-.232l.786-13.725,4.42-1.1,10.251,3.786,1.42,8.107.554,3.166.237,1.349Z" transform="translate(-435.601 1696.391)" fill="#be6f72"/>
    <rect id="Rectangle_125" data-name="Rectangle 125" width="16.162" height="25.192" transform="translate(140.792 1896.872)" fill="#3e373a"/>
    <rect id="Rectangle_126" data-name="Rectangle 126" width="16.162" height="25.192" transform="translate(140.792 1896.872)" opacity="0.1"/>
    <path id="Path_86" data-name="Path 86" d="M556.626,404.914s-5.523,6.072-3.474,7.175,15.305,21.77,15.305,21.77,43.54,5.362,51.751-2.683,8.045-22.418,8.045-22.418-6.6,1.42-7.317.648-4.671-4.491-4.671-4.491S560.412,401.525,556.626,404.914Z" transform="translate(-449.663 1612.119)" fill="#4b4b5b"/>
    <path id="Path_87" data-name="Path 87" d="M556.626,404.914s-5.523,6.072-3.474,7.175,15.305,21.77,15.305,21.77,43.54,5.362,51.751-2.683,8.045-22.418,8.045-22.418-6.6,1.42-7.317.648-4.671-4.491-4.671-4.491S560.412,401.525,556.626,404.914Z" transform="translate(-449.663 1612.119)" opacity="0.02"/>
    <path id="Path_88" data-name="Path 88" d="M621.82,195.94l-14.2,11.358-4.292.312-1.576.114-26.469,1.94-27.449-2.007-4.084-.3-5.206-.379L527.66,196.569a186.392,186.392,0,0,1,14.453-13.824,29.652,29.652,0,0,1,7-4.681l.312-.109a7.79,7.79,0,0,0,3-2.092c5.329-5.495,10.256-19.053,10.256-19.053s23.507-12.144,20.667,3.786,10.568,11.992,10.568,11.992l4.42,2.016,1.746.8,4.453,2.04,10.047,4.61C622.473,185.684,621.82,195.94,621.82,195.94Z" transform="translate(-436.475 1744.344)" fill="#be6f72"/>
    <circle id="Ellipse_25" data-name="Ellipse 25" cx="21.141" cy="21.141" r="21.141" transform="translate(116.566 1871.846)" opacity="0.1"/>
    <path id="Path_89" data-name="Path 89" d="M620.979,239.431H526V239.2l.786-13.725a186.394,186.394,0,0,1,14.453-13.824l59.631-2.366,2.773-2.925,10.047,4.61c7.889,3.625,7.255,13.881,7.255,13.881S622.025,236.734,620.979,239.431Z" transform="translate(-435.601 1715.912)" opacity="0.1"/>
    <path id="Path_90" data-name="Path 90" d="M620.979,238.431H526V238.2l.786-13.725a186.4,186.4,0,0,1,14.453-13.824l59.631-2.366,2.773-2.925,10.047,4.61c7.889,3.625,7.255,13.881,7.255,13.881S622.025,235.734,620.979,238.431Z" transform="translate(-435.601 1716.439)" fill="#e7c7ca"/>
    <path id="Path_91" data-name="Path 91" d="M587.206,189.318s14.983,19.091,34.941-.393,2.21,43.459,2.21,43.459L581.29,237.5Z" transform="translate(-464.724 1727.067)" opacity="0.1"/>
    <path id="Path_92" data-name="Path 92" d="M587.206,191.318s14.983,19.091,34.941-.393,2.21,43.459,2.21,43.459L581.29,239.5Z" transform="translate(-464.724 1726.013)" fill="#e7c7ca"/>
    <path id="Path_93" data-name="Path 93" d="M612.641,202.131l1.585,24.179,1.7,8.045,1.3,6.152s3.313,47.326,2.366,49.692.473,4.259.672,5.518-.2,4.42-.043,5.84,0,2.049-3.625,1.543-8.68-1.387-8.68-1.387-12.778.947-17.194-.629-12.778-1.581-12.778-1.581-12.622.317-16.72-.156-6.313,5.05-8.992,3.469,3.152-16.876,5.045-21.3-2.522-15.618-2.522-15.618l5.679-31.5,1.264-7.142V204.8l.312-.109a7.79,7.79,0,0,0,3-2.092l1.42,22.593,44.486,1.581V201.35" transform="translate(-449.052 1718.551)" opacity="0.1"/>
    <path id="Path_94" data-name="Path 94" d="M612.641,200.131l1.585,24.179,1.7,8.045,1.3,6.152s3.313,47.326,2.366,49.692.473,4.259.672,5.518-.2,4.42-.043,5.84,0,2.049-3.625,1.543-8.68-1.387-8.68-1.387-12.778.947-17.194-.629-12.778-1.581-12.778-1.581-12.622.317-16.72-.156-6.313,5.05-8.992,3.469,3.152-16.876,5.045-21.3-2.522-15.618-2.522-15.618l5.679-31.5,1.264-7.142V202.8l.312-.109a7.79,7.79,0,0,0,3-2.092l1.42,22.593,44.486,1.581V199.35" transform="translate(-449.052 1719.604)" fill="#e7c7ca"/>
    <path id="Path_95" data-name="Path 95" d="M610.39,69.56a5.215,5.215,0,0,0-1.42-2.679,5.812,5.812,0,0,0-2.5-1.022A49.371,49.371,0,0,0,599.9,64.6a10.515,10.515,0,0,0-1.42-2.948c-4.638-6.55-11.5-12.726-19.574-14.122-4.226-.734-9.125-.076-11.832,3.256-1.486,1.832-2.125,4.259-3.625,6.058-2.892,3.493-8.112,3.923-11.756,6.626a21.78,21.78,0,0,0-4.733,5.476c-1.491,2.163-3.024,4.416-3.5,7-.947,5.163,2.466,10.085,3.1,15.3,1.42,11.656-11.074,22-8.713,33.5,1.377,6.706,7.572,11.429,13.98,13.824,2.258.847,4.837,1.69,5.892,3.857.473.947.554,2.04,1,3,1.5,3.19,6.413,3.313,9.053.989s3.474-6.081,3.786-9.588c1.268-15.315-4.865-30.445-4.15-45.8.213-4.643,1.519-9.91,5.679-12.011,5.6-2.84,12.333,1.893,18.495.989a36.692,36.692,0,0,1,1.77,22.39c-.98,4.084-2.674,8.045-2.8,12.257-.185,6.413,3.275,12.272,6.266,17.941a9.545,9.545,0,0,1,1.264,3.46,8.339,8.339,0,0,1-.677,3.62c-1.69,4.548-4.6,8.77-4.936,13.611a2.2,2.2,0,0,0,.355,1.619,2.035,2.035,0,0,0,1.221.549c5.111.876,9.531-3.654,12.026-8.2a38.447,38.447,0,0,0,4.742-16.337c.516-9.636-2.939-19.115-2.726-28.76C608.336,91.178,613.291,80.137,610.39,69.56Z" transform="translate(-441.685 1799.717)" opacity="0.1"/>
    <path id="Path_96" data-name="Path 96" d="M611.39,68.56a5.214,5.214,0,0,0-1.42-2.679,5.812,5.812,0,0,0-2.5-1.022A49.369,49.369,0,0,0,600.9,63.6a10.515,10.515,0,0,0-1.42-2.948c-4.638-6.55-11.5-12.726-19.574-14.122-4.226-.734-9.125-.076-11.832,3.256-1.486,1.832-2.125,4.259-3.625,6.058-2.892,3.493-8.112,3.923-11.756,6.626a21.781,21.781,0,0,0-4.733,5.476c-1.491,2.163-3.024,4.416-3.5,7-.947,5.163,2.466,10.085,3.1,15.3,1.42,11.656-11.074,22-8.713,33.5,1.377,6.706,7.572,11.429,13.98,13.824,2.258.847,4.837,1.69,5.892,3.857.473.947.554,2.04,1,3,1.5,3.19,6.413,3.313,9.053.989s3.474-6.081,3.786-9.588c1.268-15.315-4.865-30.445-4.151-45.8.213-4.643,1.519-9.91,5.679-12.011,5.6-2.84,12.333,1.893,18.495.989a36.692,36.692,0,0,1,1.77,22.39c-.98,4.084-2.674,8.045-2.8,12.257-.185,6.413,3.275,12.272,6.266,17.941a9.548,9.548,0,0,1,1.264,3.46,8.34,8.34,0,0,1-.677,3.62c-1.69,4.548-4.6,8.77-4.936,13.611a2.2,2.2,0,0,0,.355,1.619,2.035,2.035,0,0,0,1.221.549c5.111.876,9.531-3.654,12.026-8.2a38.447,38.447,0,0,0,4.742-16.337c.516-9.636-2.939-19.115-2.726-28.76C609.336,90.178,614.291,79.137,611.39,68.56Z" transform="translate(-442.211 1800.243)" fill="#3e373a"/>
    <path id="Path_97" data-name="Path 97" d="M581.79,477.9l18.774.6-2.693-13.923-14.382,1.368Z" transform="translate(-423.066 1600.446)" fill="#c3c7d9"/>
    <path id="Path_98" data-name="Path 98" d="M696.2,433.77c-1.264,1.576-6.152,4.416-6.626,5.362s-6.309,3.786-9.309,4.259-12.461,2.527-14.2,3.63c-1.245.8-11.235,3.313-17.8,4.709a50.515,50.515,0,0,1-5.391.97c-2.84.156-33.914-10.412-33.914-10.412l5.991-6.152.331-.114c1.694-.573,9.522-3.218,13.867-4.477,4.893-1.42,10.573-7.255,10.573-7.255s8.358-2.84,9.465-3.157-2.84-11.041-2.84-11.041,18.14-2.518,25.239-4.652,23.507-1.344,26.5,7.018S697.479,432.194,696.2,433.77Z" transform="translate(-479.299 1611.578)" fill="#4b4b5b"/>
    <path id="Path_99" data-name="Path 99" d="M574.026,504.14s-3.625,3.786-7.255,3.474-16.323.947-16.323.947a25.446,25.446,0,0,0-6.394,3.706c-2.967,2.338-4.543.473-4.837.076l-.052-.076c-1.581,4.974-5.206,1.183-5.206,1.183s1.576-15.144,1.093-17.037,3.119-5.144,3.119-5.144l4.259-1.084,10.79-2.764,15.461,5.362Z" transform="translate(-439.794 1567.866)" fill="#e7c7ca"/>
    <path id="Path_100" data-name="Path 100" d="M542.412,493.26l-3.195,22.158-.052-.076c-1.581,4.974-5.206,1.183-5.206,1.183s1.576-15.144,1.093-17.037,3.119-5.144,3.119-5.144Z" transform="translate(-439.794 1564.79)" opacity="0.1"/>
    <path id="Path_101" data-name="Path 101" d="M599,360.08s8.358,2.84,15.618,0" transform="translate(-474.053 1634.942)" opacity="0.1"/>
    <path id="Path_102" data-name="Path 102" d="M659.29,371.42s3.469,1.732,6.152,0" transform="translate(-505.81 1628.968)" opacity="0.1"/>
    <path id="Path_103" data-name="Path 103" d="M659.29,379.215s5.835.781,6.943-.8" transform="translate(-505.81 1625.281)" opacity="0.1"/>
    <path id="Path_104" data-name="Path 104" d="M655.29,395.063s10.961-1.42,13.682-3.313" transform="translate(-503.703 1618.26)" opacity="0.1"/>
    <path id="Path_105" data-name="Path 105" d="M584.62,391.75s6.152,3.469,10.729,3.313" transform="translate(-466.478 1618.26)" opacity="0.1"/>
    <path id="Path_106" data-name="Path 106" d="M648.254,486.888a50.532,50.532,0,0,1-5.391.97c-2.839.156-33.914-10.412-33.914-10.412l5.991-6.152.331-.114c.947.667,1.723,1.24,2.276,1.675,2.608,2.054,5.125-.629,6.072-.629s9.148,6.782,9.148,6.782,7.572,1.737,8.836,3.313,5.679,1.264,6.465,2.366A4.222,4.222,0,0,1,648.254,486.888Z" transform="translate(-479.294 1576.421)" opacity="0.1"/>
    <path id="Path_107" data-name="Path 107" d="M517.132,411.516s-7.657.44-12.073-1.42-19.087-6.152-23.346-3.138-14.515,5.679-9.782,17.672,6.943,12.3,6.943,12.3a17.085,17.085,0,0,1,3.786,3.928c1.42,2.21,14.671,7.255,17.984,7.255s9.148,0,17.35,5.679a35.658,35.658,0,0,0,15.618,6.313s10.412,4.259,13.654,5.206,18.055,5.045,21.529,3.786,5.679-9.153,5.679-9.153,1.576-7.1.786-8.2-5.206-.79-6.465-2.366-8.836-3.313-8.836-3.313-8.183-6.786-9.129-6.786-3.464,2.679-6.072.629A138.518,138.518,0,0,0,528.424,429.5C522.432,426.344,517.132,411.516,517.132,411.516Z" transform="translate(-406.477 1610.798)" fill="#4b4b5b"/>
    <path id="Path_108" data-name="Path 108" d="M536.27,427.216a9.039,9.039,0,0,1,7.757,2.049c3.786,3.157,16.526,9.494,16.526,9.494" transform="translate(-441.01 1599.675)" opacity="0.1"/>
    <path id="Path_109" data-name="Path 109" d="M713.993,427s-16.881,2.556-20.033,6.025" transform="translate(-524.072 1599.692)" opacity="0.1"/>
    <path id="Path_110" data-name="Path 110" d="M729,511.083h-.743c-2.669-.095-11.713-.379-13.455,0-2.049.473-29.186,0-29.186,0l5.305-1.1s-1.969-6.9-.719-7.473c0,0-7.1-4.676-1.746-7.832a16.6,16.6,0,0,1,11.122-1.827l13.436-4.553,2.579-.876s15.144.79,19.243,11.2S729,511.083,729,511.083Z" transform="translate(-519.679 1567.866)" fill="#e7c7ca"/>
    <circle id="Ellipse_26" data-name="Ellipse 26" cx="0.828" cy="0.828" r="0.828" transform="translate(180.655 2065.026)" fill="#4b4b5b"/>
    <circle id="Ellipse_27" data-name="Ellipse 27" cx="0.828" cy="0.828" r="0.828" transform="translate(175.842 2066.394)" fill="#4b4b5b"/>
    <g id="Group_37" data-name="Group 37" transform="translate(96.468 1874.922)" opacity="0.1">
      <path id="Path_112" data-name="Path 112" d="M628.75,123.779a36.719,36.719,0,0,0-2.716-15.211c-6.152.918-12.892-3.829-18.495-.989-4.146,2.1-5.447,7.369-5.679,12.011-.057,1.226-.066,2.451-.043,3.677,0-.435,0-.876.043-1.311.218-4.643,1.519-9.91,5.679-12.011,5.6-2.84,12.333,1.893,18.495.989A36.62,36.62,0,0,1,628.75,123.779Z" transform="translate(-571.998 -106.496)"/>
      <path id="Path_113" data-name="Path 113" d="M554.314,123.971a15.771,15.771,0,0,0-.062-3.1c-.5-4.165-2.778-8.145-3.19-12.205-.53,4.9,2.589,9.6,3.19,14.572A2.958,2.958,0,0,1,554.314,123.971Z" transform="translate(-545.238 -107.553)"/>
      <path id="Path_114" data-name="Path 114" d="M572.835,215.249c-.293,3.512-1.122,7.265-3.786,9.593s-7.572,2.2-9.053-.989c-.473-.947-.544-2.049-1-3-1.051-2.168-3.635-3.01-5.892-3.857-6.413-2.4-12.6-7.1-13.975-13.824a14.524,14.524,0,0,1-.251-1.846,14.916,14.916,0,0,0,.251,4.212c1.377,6.706,7.572,11.424,13.975,13.824,2.257.847,4.841,1.69,5.892,3.857.473.947.554,2.04,1,3,1.491,3.19,6.408,3.313,9.053.989s3.469-6.081,3.786-9.593a54.055,54.055,0,0,0,.147-5.556C572.981,213.133,572.92,214.193,572.835,215.249Z" transform="translate(-538.823 -156.361)"/>
      <path id="Path_115" data-name="Path 115" d="M687.93,130.531v2.049c.265-8.8,3.493-17.653,3.176-26.271C690.859,114.28,688.11,122.429,687.93,130.531Z" transform="translate(-617.364 -106.31)"/>
      <path id="Path_116" data-name="Path 116" d="M658.208,208.821a6.1,6.1,0,0,0,.109-1.708,9.466,9.466,0,0,0-1.264-3.46c-2.736-5.206-5.854-10.535-6.223-16.313,0,.246-.033.473-.038.738-.189,6.408,3.27,12.272,6.261,17.941A11.36,11.36,0,0,1,658.208,208.821Z" transform="translate(-597.797 -148.992)"/>
      <path id="Path_117" data-name="Path 117" d="M673.186,217.207a38.509,38.509,0,0,1-4.775,16.337c-2.5,4.548-6.914,9.077-12.03,8.2a2.011,2.011,0,0,1-1.221-.554,1.184,1.184,0,0,1-.222-.369c-.057.369-.1.743-.133,1.122a2.182,2.182,0,0,0,.355,1.614,2.012,2.012,0,0,0,1.221.554c5.116.876,9.531-3.654,12.03-8.2a38.509,38.509,0,0,0,4.775-16.337c.057-1.107.062-2.21.028-3.313C673.2,216.577,673.2,216.889,673.186,217.207Z" transform="translate(-599.898 -164.225)"/>
    </g>
    <path id="Path_118" data-name="Path 118" d="M695.31,512.516s11.978,5.026,19.877-6.1" transform="translate(-524.783 1557.858)" fill="none" stroke="#000" stroke-miterlimit="10" stroke-width="1" opacity="0.1"/>
    <path id="Path_119" data-name="Path 119" d="M700.29,534.644s9.782-6.361,22.243-.208" transform="translate(-527.406 1544.514)" fill="none" stroke="#000" stroke-miterlimit="10" stroke-width="1" opacity="0.1"/>
    <path id="Path_120" data-name="Path 120" d="M561.93,529.4s4.108-9.266,15.078-2.2" transform="translate(-454.526 1548.31)" fill="none" stroke="#000" stroke-miterlimit="10" stroke-width="1" opacity="0.1"/>
    <path id="Path_121" data-name="Path 121" d="M533.79,234.944l8.377-7.572s32.48-2.13,33.824,8.911c0,0,11.514-13.09,35.731-10.175l10.246,8.159L593.648,246.7l-27.52,9.546-20.27-9.072Z" transform="translate(-439.704 1705.733)" opacity="0.1"/>
    <path id="Path_122" data-name="Path 122" d="M533.79,235.944l8.377-7.572s32.48-2.13,33.824,8.911c0,0,11.514-13.09,35.731-10.175l10.246,8.159L593.648,247.7l-27.52,9.546-20.27-9.072Z" transform="translate(-439.704 1705.206)" fill="#d5d6db"/>
    <path id="Path_123" data-name="Path 123" d="M437.38,204.83l3.706,44.33,39.281,1.973-1.7-44.141-.033-.743Z" transform="translate(-347 1737.267)" opacity="0.1"/>
    <path id="Path_124" data-name="Path 124" d="M437.38,202.83l3.706,44.33,39.281,1.973-1.7-44.141-.033-.743Z" transform="translate(-347 1738.32)" fill="#38d39f"/>
    <path id="Path_125" data-name="Path 125" d="M590.231,202.83l-40.521,6.077v44.529l39.6-5.722Z" transform="translate(-406.168 1738.32)" opacity="0.1"/>
    <path id="Path_126" data-name="Path 126" d="M590.231,200.83l-40.521,6.077v44.529l39.6-5.722Z" transform="translate(-406.168 1739.374)" fill="#38d39f"/>
    <path id="Path_127" data-name="Path 127" d="M590.778,223.79l-21.888,2.433.478,7.459,21.4-2.338Z" transform="translate(-416.271 1727.28)" fill="#fff" opacity="0.3"/>
    <path id="Path_128" data-name="Path 128" d="M537.231,346.139l2.229,6s3.313,2.84,6.938,1.42,6.786-2.125,8.362-3.507,3.786-8.325,3.786-8.325,2.21-7.572,4.416-9.465,8.045-27.974,0-25.424-14.2,26.214-14.2,26.214a5.611,5.611,0,0,1-3.469,1.893c-2.049.161-6.152-.317-6.943,1.42S534.865,342.67,537.231,346.139Z" transform="translate(-441.016 1663.08)" fill="#be6f72"/>
    <path id="Path_129" data-name="Path 129" d="M625.064,255.783a13.63,13.63,0,0,1-11.884-2.963l1.708,44.136a12.045,12.045,0,0,0,10.175,3.36Z" transform="translate(-481.522 1691.44)" opacity="0.1"/>
    <path id="Path_130" data-name="Path 130" d="M625.064,253.783a13.63,13.63,0,0,1-11.884-2.963l1.708,44.136a12.045,12.045,0,0,0,10.175,3.36Z" transform="translate(-481.522 1692.493)" fill="#38d39f"/>
    <path id="Path_131" data-name="Path 131" d="M625.064,253.783a13.63,13.63,0,0,1-11.884-2.963l1.708,44.136a12.045,12.045,0,0,0,10.175,3.36Z" transform="translate(-481.522 1692.493)" opacity="0.1"/>
    <path id="Path_132" data-name="Path 132" d="M640.29,241.674s16.484-5.04,20.781-4.33" transform="translate(-495.802 1699.628)" opacity="0.1"/>
    <path id="Path_133" data-name="Path 133" d="M580.576,238.688S564.6,234.9,561.93,235.976" transform="translate(-454.526 1700.413)" opacity="0.1"/>
    <path id="Path_134" data-name="Path 134" d="M662.25,244.964s11.022-4.042,15.007-2.12" transform="translate(-507.369 1696.968)" opacity="0.1"/>
    <path id="Path_135" data-name="Path 135" d="M650.52,452.9a36.235,36.235,0,0,1,5.433-3.374A88.647,88.647,0,0,0,664,444.61" transform="translate(-501.19 1590.416)" opacity="0.1"/>
    <path id="Path_136" data-name="Path 136" d="M548.182,360.08s-6.914,5.655-8.992,6.152-3.36,4.908-3.36,4.908" transform="translate(-440.779 1634.942)" opacity="0.1"/>
    <path id="Path_137" data-name="Path 137" d="M682.117,344.375l-2.205,6.01s-3.313,2.84-6.943,1.42-6.782-2.125-8.362-3.507-3.786-8.325-3.786-8.325-2.205-7.572-4.416-9.465-8.045-27.974,0-25.424S670.6,331.3,670.6,331.3a5.612,5.612,0,0,0,3.469,1.893c2.049.161,6.152-.317,6.943,1.42S684.484,340.92,682.117,344.375Z" transform="translate(-502.12 1664.002)" fill="#be6f72"/>
    <path id="Path_138" data-name="Path 138" d="M707.15,364.94s4.52,2.906,4.5,6.38" transform="translate(-531.02 1632.382)" opacity="0.1"/>
    <circle id="Ellipse_28" data-name="Ellipse 28" cx="21.141" cy="21.141" r="21.141" transform="translate(116.642 1870.81)" fill="#be6f72"/>
  </g>
</svg>
